<svg width="287" height="355" viewBox="0 0 287 355" fill="none" xmlns="http://www.w3.org/2000/svg">
<path d="M0 25C0 11.1929 11.1929 0 25 0H225C259.242 0 287 27.7583 287 62V330C287 343.807 275.807 355 262 355H26C11.6406 355 0 343.359 0 329V25Z" fill="#FFD1D1"/>
<path d="M109.312 218.304C109.312 222.208 108.416 225.792 106.624 229.056C104.832 232.256 102.08 234.848 98.368 236.832C94.656 238.816 90.048 239.808 84.544 239.808H74.368V264H57.952V196.608H84.544C89.92 196.608 94.464 197.536 98.176 199.392C101.888 201.248 104.672 203.808 106.528 207.072C108.384 210.336 109.312 214.08 109.312 218.304ZM83.296 226.752C86.432 226.752 88.768 226.016 90.304 224.544C91.84 223.072 92.608 220.992 92.608 218.304C92.608 215.616 91.84 213.536 90.304 212.064C88.768 210.592 86.432 209.856 83.296 209.856H74.368V226.752H83.296ZM143.106 196.608C150.21 196.608 156.418 198.016 161.73 200.832C167.042 203.648 171.138 207.616 174.018 212.736C176.962 217.792 178.434 223.648 178.434 230.304C178.434 236.896 176.962 242.752 174.018 247.872C171.138 252.992 167.01 256.96 161.634 259.776C156.322 262.592 150.146 264 143.106 264H117.858V196.608H143.106ZM142.05 249.792C148.258 249.792 153.09 248.096 156.546 244.704C160.002 241.312 161.73 236.512 161.73 230.304C161.73 224.096 160.002 219.264 156.546 215.808C153.09 212.352 148.258 210.624 142.05 210.624H134.274V249.792H142.05ZM231.48 196.608V209.76H204.024V223.968H224.568V236.736H204.024V264H187.608V196.608H231.48Z" fill="#FF5151"/>
<path d="M266.895 39.0174C277.325 56.2676 271.797 78.7071 254.546 89.1373C237.296 99.5676 194.07 108.944 183.64 91.6942C173.21 74.444 199.525 37.0989 216.775 26.6687C234.025 16.2384 256.465 21.7671 266.895 39.0174Z" fill="#FA8686"/>
</svg>
